<mxfile host="Electron" modified="2024-03-04T16:46:33.301Z" agent="Mozilla/5.0 (Macintosh; Intel Mac OS X 10_15_7) AppleWebKit/537.36 (KHTML, like Gecko) draw.io/23.1.5 Chrome/120.0.6099.109 Electron/28.1.0 Safari/537.36" etag="gJDaoS_JbV36d44mN-CO" version="23.1.5" type="device" pages="2">
  <diagram id="C5RBs43oDa-KdzZeNtuy" name="einfache-verkettete-Liste">
    <mxGraphModel dx="1242" dy="819" grid="1" gridSize="10" guides="1" tooltips="1" connect="1" arrows="1" fold="1" page="1" pageScale="1" pageWidth="827" pageHeight="1169" math="0" shadow="0">
      <root>
        <mxCell id="WIyWlLk6GJQsqaUBKTNV-0" />
        <mxCell id="WIyWlLk6GJQsqaUBKTNV-1" parent="WIyWlLk6GJQsqaUBKTNV-0" />
        <mxCell id="VWwkZmR0C7Vhp11R8X6D-6" style="edgeStyle=orthogonalEdgeStyle;rounded=0;orthogonalLoop=1;jettySize=auto;html=1;entryX=0.5;entryY=1;entryDx=0;entryDy=0;endArrow=block;endFill=0;dashed=1;exitX=0.5;exitY=0;exitDx=0;exitDy=0;" parent="WIyWlLk6GJQsqaUBKTNV-1" target="VWwkZmR0C7Vhp11R8X6D-4" edge="1">
          <mxGeometry relative="1" as="geometry">
            <mxPoint x="495" y="160" as="sourcePoint" />
          </mxGeometry>
        </mxCell>
        <mxCell id="VWwkZmR0C7Vhp11R8X6D-15" style="edgeStyle=orthogonalEdgeStyle;rounded=0;orthogonalLoop=1;jettySize=auto;html=1;exitX=0.75;exitY=0;exitDx=0;exitDy=0;entryX=0.949;entryY=-0.017;entryDx=0;entryDy=0;entryPerimeter=0;endArrow=open;endFill=0;" parent="WIyWlLk6GJQsqaUBKTNV-1" edge="1">
          <mxGeometry relative="1" as="geometry">
            <mxPoint x="619.8000000000002" y="157.6540000000001" as="targetPoint" />
            <mxPoint x="580" y="160" as="sourcePoint" />
            <Array as="points">
              <mxPoint x="560" y="160" />
              <mxPoint x="560" y="120" />
              <mxPoint x="620" y="120" />
            </Array>
          </mxGeometry>
        </mxCell>
        <mxCell id="zkfFHV4jXpPFQw0GAbJ--0" value="Allocation" style="swimlane;fontStyle=2;align=center;verticalAlign=top;childLayout=stackLayout;horizontal=1;startSize=26;horizontalStack=0;resizeParent=1;resizeLast=0;collapsible=1;marginBottom=0;rounded=0;shadow=0;strokeWidth=1;" parent="WIyWlLk6GJQsqaUBKTNV-1" vertex="1">
          <mxGeometry x="440" y="160" width="200" height="138" as="geometry">
            <mxRectangle x="230" y="140" width="160" height="26" as="alternateBounds" />
          </mxGeometry>
        </mxCell>
        <mxCell id="zkfFHV4jXpPFQw0GAbJ--1" value="- start : byte" style="text;align=left;verticalAlign=top;spacingLeft=4;spacingRight=4;overflow=hidden;rotatable=0;points=[[0,0.5],[1,0.5]];portConstraint=eastwest;" parent="zkfFHV4jXpPFQw0GAbJ--0" vertex="1">
          <mxGeometry y="26" width="200" height="26" as="geometry" />
        </mxCell>
        <mxCell id="zkfFHV4jXpPFQw0GAbJ--2" value="- size : byte" style="text;align=left;verticalAlign=top;spacingLeft=4;spacingRight=4;overflow=hidden;rotatable=0;points=[[0,0.5],[1,0.5]];portConstraint=eastwest;rounded=0;shadow=0;html=0;" parent="zkfFHV4jXpPFQw0GAbJ--0" vertex="1">
          <mxGeometry y="52" width="200" height="26" as="geometry" />
        </mxCell>
        <mxCell id="zkfFHV4jXpPFQw0GAbJ--4" value="" style="line;html=1;strokeWidth=1;align=left;verticalAlign=middle;spacingTop=-1;spacingLeft=3;spacingRight=3;rotatable=0;labelPosition=right;points=[];portConstraint=eastwest;" parent="zkfFHV4jXpPFQw0GAbJ--0" vertex="1">
          <mxGeometry y="78" width="200" height="8" as="geometry" />
        </mxCell>
        <mxCell id="zkfFHV4jXpPFQw0GAbJ--5" value="+ equals(o : Object) : boolean" style="text;align=left;verticalAlign=top;spacingLeft=4;spacingRight=4;overflow=hidden;rotatable=0;points=[[0,0.5],[1,0.5]];portConstraint=eastwest;" parent="zkfFHV4jXpPFQw0GAbJ--0" vertex="1">
          <mxGeometry y="86" width="200" height="26" as="geometry" />
        </mxCell>
        <mxCell id="VWwkZmR0C7Vhp11R8X6D-0" value="+ hashcode() : int" style="text;align=left;verticalAlign=top;spacingLeft=4;spacingRight=4;overflow=hidden;rotatable=0;points=[[0,0.5],[1,0.5]];portConstraint=eastwest;" parent="zkfFHV4jXpPFQw0GAbJ--0" vertex="1">
          <mxGeometry y="112" width="200" height="26" as="geometry" />
        </mxCell>
        <mxCell id="VWwkZmR0C7Vhp11R8X6D-4" value="«interface»&lt;br&gt;&lt;b&gt;Comparable&lt;/b&gt;" style="html=1;whiteSpace=wrap;" parent="WIyWlLk6GJQsqaUBKTNV-1" vertex="1">
          <mxGeometry x="440" y="70" width="110" height="50" as="geometry" />
        </mxCell>
        <mxCell id="VWwkZmR0C7Vhp11R8X6D-10" style="edgeStyle=orthogonalEdgeStyle;rounded=0;orthogonalLoop=1;jettySize=auto;html=1;exitX=1;exitY=0.5;exitDx=0;exitDy=0;entryX=0;entryY=0.5;entryDx=0;entryDy=0;endArrow=open;endFill=0;" parent="WIyWlLk6GJQsqaUBKTNV-1" source="VWwkZmR0C7Vhp11R8X6D-9" target="zkfFHV4jXpPFQw0GAbJ--2" edge="1">
          <mxGeometry relative="1" as="geometry" />
        </mxCell>
        <mxCell id="VWwkZmR0C7Vhp11R8X6D-9" value="List" style="html=1;whiteSpace=wrap;" parent="WIyWlLk6GJQsqaUBKTNV-1" vertex="1">
          <mxGeometry x="180" y="200" width="110" height="50" as="geometry" />
        </mxCell>
        <mxCell id="VWwkZmR0C7Vhp11R8X6D-11" value="0..1" style="text;html=1;align=center;verticalAlign=middle;resizable=0;points=[];autosize=1;strokeColor=none;fillColor=none;" parent="WIyWlLk6GJQsqaUBKTNV-1" vertex="1">
          <mxGeometry x="400" y="198" width="40" height="30" as="geometry" />
        </mxCell>
        <mxCell id="VWwkZmR0C7Vhp11R8X6D-12" value="- head" style="text;html=1;align=center;verticalAlign=middle;resizable=0;points=[];autosize=1;strokeColor=none;fillColor=none;" parent="WIyWlLk6GJQsqaUBKTNV-1" vertex="1">
          <mxGeometry x="290" y="198" width="60" height="30" as="geometry" />
        </mxCell>
        <mxCell id="VWwkZmR0C7Vhp11R8X6D-13" value="E" style="rounded=0;whiteSpace=wrap;html=1;dashed=1;" parent="WIyWlLk6GJQsqaUBKTNV-1" vertex="1">
          <mxGeometry x="280" y="190" width="20" height="20" as="geometry" />
        </mxCell>
        <mxCell id="VWwkZmR0C7Vhp11R8X6D-14" value="x" style="text;html=1;align=center;verticalAlign=middle;resizable=0;points=[];autosize=1;strokeColor=none;fillColor=none;" parent="WIyWlLk6GJQsqaUBKTNV-1" vertex="1">
          <mxGeometry x="289" y="209" width="30" height="30" as="geometry" />
        </mxCell>
        <mxCell id="VWwkZmR0C7Vhp11R8X6D-16" value="- next" style="text;html=1;align=center;verticalAlign=middle;resizable=0;points=[];autosize=1;strokeColor=none;fillColor=none;" parent="WIyWlLk6GJQsqaUBKTNV-1" vertex="1">
          <mxGeometry x="565" y="90" width="50" height="30" as="geometry" />
        </mxCell>
        <mxCell id="VWwkZmR0C7Vhp11R8X6D-17" value="0..1" style="text;html=1;align=center;verticalAlign=middle;resizable=0;points=[];autosize=1;strokeColor=none;fillColor=none;" parent="WIyWlLk6GJQsqaUBKTNV-1" vertex="1">
          <mxGeometry x="615" y="105" width="40" height="30" as="geometry" />
        </mxCell>
        <mxCell id="VWwkZmR0C7Vhp11R8X6D-18" value="E" style="rounded=0;whiteSpace=wrap;html=1;dashed=1;" parent="WIyWlLk6GJQsqaUBKTNV-1" vertex="1">
          <mxGeometry x="630" y="150" width="20" height="20" as="geometry" />
        </mxCell>
      </root>
    </mxGraphModel>
  </diagram>
  <diagram name="doppelt-verkettete-Liste" id="pqzOeJc0ytCHjTSj9G7z">
    <mxGraphModel dx="1183" dy="780" grid="1" gridSize="10" guides="1" tooltips="1" connect="1" arrows="1" fold="1" page="1" pageScale="1" pageWidth="827" pageHeight="1169" math="0" shadow="0">
      <root>
        <mxCell id="p4mgv9_2WPO_qd56D9cj-0" />
        <mxCell id="p4mgv9_2WPO_qd56D9cj-1" parent="p4mgv9_2WPO_qd56D9cj-0" />
        <mxCell id="p4mgv9_2WPO_qd56D9cj-2" style="edgeStyle=orthogonalEdgeStyle;rounded=0;orthogonalLoop=1;jettySize=auto;html=1;entryX=0.5;entryY=1;entryDx=0;entryDy=0;endArrow=block;endFill=0;dashed=1;exitX=0.5;exitY=0;exitDx=0;exitDy=0;" edge="1" parent="p4mgv9_2WPO_qd56D9cj-1" target="p4mgv9_2WPO_qd56D9cj-10">
          <mxGeometry relative="1" as="geometry">
            <mxPoint x="455" y="160" as="sourcePoint" />
          </mxGeometry>
        </mxCell>
        <mxCell id="p4mgv9_2WPO_qd56D9cj-3" style="edgeStyle=orthogonalEdgeStyle;rounded=0;orthogonalLoop=1;jettySize=auto;html=1;exitX=0.75;exitY=0;exitDx=0;exitDy=0;endArrow=open;endFill=0;" edge="1" parent="p4mgv9_2WPO_qd56D9cj-1">
          <mxGeometry relative="1" as="geometry">
            <mxPoint x="610" y="160" as="targetPoint" />
            <mxPoint x="580" y="160" as="sourcePoint" />
            <Array as="points">
              <mxPoint x="560" y="160" />
              <mxPoint x="560" y="120" />
              <mxPoint x="610" y="120" />
              <mxPoint x="610" y="158" />
            </Array>
          </mxGeometry>
        </mxCell>
        <mxCell id="p4mgv9_2WPO_qd56D9cj-4" value="Allocation" style="swimlane;fontStyle=2;align=center;verticalAlign=top;childLayout=stackLayout;horizontal=1;startSize=26;horizontalStack=0;resizeParent=1;resizeLast=0;collapsible=1;marginBottom=0;rounded=0;shadow=0;strokeWidth=1;" vertex="1" parent="p4mgv9_2WPO_qd56D9cj-1">
          <mxGeometry x="440" y="160" width="200" height="138" as="geometry">
            <mxRectangle x="230" y="140" width="160" height="26" as="alternateBounds" />
          </mxGeometry>
        </mxCell>
        <mxCell id="p4mgv9_2WPO_qd56D9cj-5" value="- start : byte" style="text;align=left;verticalAlign=top;spacingLeft=4;spacingRight=4;overflow=hidden;rotatable=0;points=[[0,0.5],[1,0.5]];portConstraint=eastwest;" vertex="1" parent="p4mgv9_2WPO_qd56D9cj-4">
          <mxGeometry y="26" width="200" height="26" as="geometry" />
        </mxCell>
        <mxCell id="p4mgv9_2WPO_qd56D9cj-6" value="- size : byte" style="text;align=left;verticalAlign=top;spacingLeft=4;spacingRight=4;overflow=hidden;rotatable=0;points=[[0,0.5],[1,0.5]];portConstraint=eastwest;rounded=0;shadow=0;html=0;" vertex="1" parent="p4mgv9_2WPO_qd56D9cj-4">
          <mxGeometry y="52" width="200" height="26" as="geometry" />
        </mxCell>
        <mxCell id="p4mgv9_2WPO_qd56D9cj-7" value="" style="line;html=1;strokeWidth=1;align=left;verticalAlign=middle;spacingTop=-1;spacingLeft=3;spacingRight=3;rotatable=0;labelPosition=right;points=[];portConstraint=eastwest;" vertex="1" parent="p4mgv9_2WPO_qd56D9cj-4">
          <mxGeometry y="78" width="200" height="8" as="geometry" />
        </mxCell>
        <mxCell id="p4mgv9_2WPO_qd56D9cj-8" value="+ equals(o : Object) : boolean" style="text;align=left;verticalAlign=top;spacingLeft=4;spacingRight=4;overflow=hidden;rotatable=0;points=[[0,0.5],[1,0.5]];portConstraint=eastwest;" vertex="1" parent="p4mgv9_2WPO_qd56D9cj-4">
          <mxGeometry y="86" width="200" height="26" as="geometry" />
        </mxCell>
        <mxCell id="p4mgv9_2WPO_qd56D9cj-9" value="+ hashcode() : int" style="text;align=left;verticalAlign=top;spacingLeft=4;spacingRight=4;overflow=hidden;rotatable=0;points=[[0,0.5],[1,0.5]];portConstraint=eastwest;" vertex="1" parent="p4mgv9_2WPO_qd56D9cj-4">
          <mxGeometry y="112" width="200" height="26" as="geometry" />
        </mxCell>
        <mxCell id="p4mgv9_2WPO_qd56D9cj-10" value="«interface»&lt;br&gt;&lt;b&gt;Comparable&lt;/b&gt;" style="html=1;whiteSpace=wrap;" vertex="1" parent="p4mgv9_2WPO_qd56D9cj-1">
          <mxGeometry x="400" y="30" width="110" height="50" as="geometry" />
        </mxCell>
        <mxCell id="p4mgv9_2WPO_qd56D9cj-11" style="edgeStyle=orthogonalEdgeStyle;rounded=0;orthogonalLoop=1;jettySize=auto;html=1;exitX=1;exitY=0.5;exitDx=0;exitDy=0;entryX=0;entryY=0.5;entryDx=0;entryDy=0;endArrow=open;endFill=0;" edge="1" parent="p4mgv9_2WPO_qd56D9cj-1" source="p4mgv9_2WPO_qd56D9cj-12" target="p4mgv9_2WPO_qd56D9cj-6">
          <mxGeometry relative="1" as="geometry">
            <Array as="points">
              <mxPoint x="290" y="225" />
            </Array>
          </mxGeometry>
        </mxCell>
        <mxCell id="p4mgv9_2WPO_qd56D9cj-12" value="List" style="html=1;whiteSpace=wrap;" vertex="1" parent="p4mgv9_2WPO_qd56D9cj-1">
          <mxGeometry x="180" y="200" width="110" height="70" as="geometry" />
        </mxCell>
        <mxCell id="p4mgv9_2WPO_qd56D9cj-13" value="0..1" style="text;html=1;align=center;verticalAlign=middle;resizable=0;points=[];autosize=1;strokeColor=none;fillColor=none;" vertex="1" parent="p4mgv9_2WPO_qd56D9cj-1">
          <mxGeometry x="400" y="198" width="40" height="30" as="geometry" />
        </mxCell>
        <mxCell id="p4mgv9_2WPO_qd56D9cj-14" value="- head" style="text;html=1;align=center;verticalAlign=middle;resizable=0;points=[];autosize=1;strokeColor=none;fillColor=none;" vertex="1" parent="p4mgv9_2WPO_qd56D9cj-1">
          <mxGeometry x="290" y="198" width="60" height="30" as="geometry" />
        </mxCell>
        <mxCell id="p4mgv9_2WPO_qd56D9cj-15" value="E" style="rounded=0;whiteSpace=wrap;html=1;dashed=1;" vertex="1" parent="p4mgv9_2WPO_qd56D9cj-1">
          <mxGeometry x="280" y="190" width="20" height="20" as="geometry" />
        </mxCell>
        <mxCell id="p4mgv9_2WPO_qd56D9cj-16" value="x" style="text;html=1;align=center;verticalAlign=middle;resizable=0;points=[];autosize=1;strokeColor=none;fillColor=none;" vertex="1" parent="p4mgv9_2WPO_qd56D9cj-1">
          <mxGeometry x="289" y="209" width="30" height="30" as="geometry" />
        </mxCell>
        <mxCell id="p4mgv9_2WPO_qd56D9cj-17" value="- next" style="text;html=1;align=center;verticalAlign=middle;resizable=0;points=[];autosize=1;strokeColor=none;fillColor=none;" vertex="1" parent="p4mgv9_2WPO_qd56D9cj-1">
          <mxGeometry x="559" y="90" width="50" height="30" as="geometry" />
        </mxCell>
        <mxCell id="p4mgv9_2WPO_qd56D9cj-18" value="0..1" style="text;html=1;align=center;verticalAlign=middle;resizable=0;points=[];autosize=1;strokeColor=none;fillColor=none;" vertex="1" parent="p4mgv9_2WPO_qd56D9cj-1">
          <mxGeometry x="607" y="105" width="40" height="30" as="geometry" />
        </mxCell>
        <mxCell id="p4mgv9_2WPO_qd56D9cj-19" value="E" style="rounded=0;whiteSpace=wrap;html=1;dashed=1;" vertex="1" parent="p4mgv9_2WPO_qd56D9cj-1">
          <mxGeometry x="630" y="150" width="20" height="20" as="geometry" />
        </mxCell>
        <mxCell id="EqZk62VZhZOoAQv_LTiq-0" style="edgeStyle=orthogonalEdgeStyle;rounded=0;orthogonalLoop=1;jettySize=auto;html=1;entryX=0.949;entryY=-0.017;entryDx=0;entryDy=0;entryPerimeter=0;startArrow=open;startFill=0;exitX=0.253;exitY=-0.028;exitDx=0;exitDy=0;exitPerimeter=0;endArrow=none;endFill=0;" edge="1" parent="p4mgv9_2WPO_qd56D9cj-1" source="p4mgv9_2WPO_qd56D9cj-4">
          <mxGeometry relative="1" as="geometry">
            <mxPoint x="539.8000000000002" y="157.6540000000001" as="targetPoint" />
            <mxPoint x="479.79999999999995" y="157.37799999999993" as="sourcePoint" />
            <Array as="points">
              <mxPoint x="491" y="120" />
              <mxPoint x="540" y="120" />
            </Array>
          </mxGeometry>
        </mxCell>
        <mxCell id="EqZk62VZhZOoAQv_LTiq-1" value="- prev" style="text;html=1;align=center;verticalAlign=middle;resizable=0;points=[];autosize=1;strokeColor=none;fillColor=none;" vertex="1" parent="p4mgv9_2WPO_qd56D9cj-1">
          <mxGeometry x="485" y="90" width="50" height="30" as="geometry" />
        </mxCell>
        <mxCell id="EqZk62VZhZOoAQv_LTiq-2" value="0..1" style="text;html=1;align=center;verticalAlign=middle;resizable=0;points=[];autosize=1;strokeColor=none;fillColor=none;" vertex="1" parent="p4mgv9_2WPO_qd56D9cj-1">
          <mxGeometry x="454" y="105" width="40" height="30" as="geometry" />
        </mxCell>
        <mxCell id="8flgNKPhNHQ7sjfHoj8Y-0" style="edgeStyle=orthogonalEdgeStyle;rounded=0;orthogonalLoop=1;jettySize=auto;html=1;exitX=1;exitY=0.5;exitDx=0;exitDy=0;entryX=0;entryY=0.5;entryDx=0;entryDy=0;endArrow=open;endFill=0;" edge="1" parent="p4mgv9_2WPO_qd56D9cj-1">
          <mxGeometry relative="1" as="geometry">
            <mxPoint x="290" y="245" as="sourcePoint" />
            <mxPoint x="440" y="245" as="targetPoint" />
          </mxGeometry>
        </mxCell>
        <mxCell id="8flgNKPhNHQ7sjfHoj8Y-1" value="0..1" style="text;html=1;align=center;verticalAlign=middle;resizable=0;points=[];autosize=1;strokeColor=none;fillColor=none;" vertex="1" parent="p4mgv9_2WPO_qd56D9cj-1">
          <mxGeometry x="399" y="240" width="40" height="30" as="geometry" />
        </mxCell>
        <mxCell id="8flgNKPhNHQ7sjfHoj8Y-2" value="- tail" style="text;html=1;align=center;verticalAlign=middle;resizable=0;points=[];autosize=1;strokeColor=none;fillColor=none;" vertex="1" parent="p4mgv9_2WPO_qd56D9cj-1">
          <mxGeometry x="294" y="240" width="50" height="30" as="geometry" />
        </mxCell>
        <mxCell id="8flgNKPhNHQ7sjfHoj8Y-3" value="x" style="text;html=1;align=center;verticalAlign=middle;resizable=0;points=[];autosize=1;strokeColor=none;fillColor=none;" vertex="1" parent="p4mgv9_2WPO_qd56D9cj-1">
          <mxGeometry x="289" y="229" width="30" height="30" as="geometry" />
        </mxCell>
      </root>
    </mxGraphModel>
  </diagram>
</mxfile>
